<?xml version="1.0" standalone="no"?><!DOCTYPE svg PUBLIC "-//W3C//DTD SVG 1.1//EN" "http://www.w3.org/Graphics/SVG/1.1/DTD/svg11.dtd"><svg t="1547309936429" class="icon" style="" viewBox="0 0 1056 1024" version="1.1" xmlns="http://www.w3.org/2000/svg" p-id="1620" xmlns:xlink="http://www.w3.org/1999/xlink" width="206.25" height="200"><defs><style type="text/css"></style></defs><path d="M48 896l832 0c26.464 0 48-21.536 48-48l0-800c0-26.464-21.536-48-48-48l-832 0c-26.464 0-48 21.536-48 48l0 800c0 26.464 21.536 48 48 48zM32 48c0-8.832 7.2-16 16-16l832 0c8.8 0 16 7.168 16 16l0 800c0 8.832-7.2 16-16 16l-832 0c-8.8 0-16-7.168-16-16l0-800zM576 352c35.296 0 64-28.704 64-64s-28.704-64-64-64-64 28.704-64 64 28.704 64 64 64zM576 256c17.664 0 32 14.368 32 32s-14.336 32-32 32-32-14.368-32-32 14.336-32 32-32zM112 736l704 0c8.832 0 16-7.168 16-16l0-608c0-8.832-7.168-16-16-16l-704 0c-8.832 0-16 7.168-16 16l0 608c0 8.832 7.168 16 16 16zM128 704l0-148.416c0.704-0.512 1.504-0.8 2.144-1.44l163.712-163.712c8.32-8.32 22.784-8.288 31.104 0l240.672 240.672c3.136 3.136 7.232 4.672 11.328 4.672 3.968 0 7.936-1.472 11.04-4.416l123.712-117.504c4.16-4.16 9.696-6.464 15.552-6.464 5.888 0 11.36 2.304 14.848 5.696l57.888 65.888 0 125.024-672 0zM800 128l0 402.592-34.592-39.296c-10.144-10.208-23.712-15.84-38.112-15.84-0.032 0-0.032 0-0.032 0-14.432 0-28 5.632-37.92 15.552l-112.128 106.496-229.632-229.664c-20.448-20.416-55.968-20.384-76.352 0l-143.232 143.232 0-383.072 672 0zM144 930.656c-8.832 0-16 7.168-16 16l0 29.344c0 26.464 21.536 48 48 48l832 0c26.464 0 48-21.536 48-48l0-832c0-26.464-21.536-48-48-48l-29.344 0c-8.832 0-16 7.168-16 16s7.168 16 16 16l29.344 0c8.8 0 16 7.168 16 16l0 832c0 8.832-7.2 16-16 16l-832 0c-8.8 0-16-7.168-16-16l0-29.344c0-8.832-7.168-16-16-16z" p-id="1621" fill="#ff7aa0"></path></svg>
