<?xml version="1.0" standalone="no"?><!DOCTYPE svg PUBLIC "-//W3C//DTD SVG 1.1//EN" "http://www.w3.org/Graphics/SVG/1.1/DTD/svg11.dtd"><svg t="1547309915650" class="icon" style="" viewBox="0 0 1024 1024" version="1.1" xmlns="http://www.w3.org/2000/svg" p-id="1301" xmlns:xlink="http://www.w3.org/1999/xlink" width="200" height="200"><defs><style type="text/css"></style></defs><path d="M868.2 846.3H155.8c-33 0-59.8-26.8-59.8-59.8v-548c0-33 26.8-59.8 59.8-59.8h712.3c33 0 59.8 26.8 59.8 59.8v547.9c0.1 33.1-26.7 59.9-59.7 59.9zM155.8 210.7c-15.3 0-27.8 12.5-27.8 27.8v547.9c0 15.3 12.5 27.8 27.8 27.8h712.3c15.3 0 27.8-12.5 27.8-27.8V238.5c0-15.3-12.5-27.8-27.8-27.8H155.8z" p-id="1302" fill="#ffffff"></path><path d="M221.6 846.3c-8.8 0-16-7.2-16-16V205.7c0-8.8 7.2-16 16-16s16 7.2 16 16v624.7c0 8.7-7.2 15.9-16 15.9z" p-id="1303" fill="#ffffff"></path><path d="M206.5 753.2h-90.4c-8.8 0-16-7.2-16-16s7.2-16 16-16h90.4c8.8 0 16 7.2 16 16s-7.1 16-16 16zM206.5 663.3h-90.4c-8.8 0-16-7.2-16-16s7.2-16 16-16h90.4c8.8 0 16 7.2 16 16s-7.1 16-16 16zM206.5 573.4h-90.4c-8.8 0-16-7.2-16-16s7.2-16 16-16h90.4c8.8 0 16 7.2 16 16s-7.1 16-16 16zM206.5 483.6h-90.4c-8.8 0-16-7.2-16-16s7.2-16 16-16h90.4c8.8 0 16 7.2 16 16s-7.1 16-16 16zM206.5 393.7h-90.4c-8.8 0-16-7.2-16-16s7.2-16 16-16h90.4c8.8 0 16 7.2 16 16s-7.1 16-16 16zM206.5 303.8h-90.4c-8.8 0-16-7.2-16-16s7.2-16 16-16h90.4c8.8 0 16 7.2 16 16s-7.1 16-16 16z" p-id="1304" fill="#ffffff"></path><path d="M802.4 846.3c-8.8 0-16-7.2-16-16V205.6c0-8.8 7.2-16 16-16s16 7.2 16 16v624.7c0 8.8-7.2 16-16 16z" p-id="1305" fill="#ffffff"></path><path d="M907.9 314.8h-90.4c-8.8 0-16-7.2-16-16s7.2-16 16-16h90.4c8.8 0 16 7.2 16 16s-7.2 16-16 16zM907.9 404.7h-90.4c-8.8 0-16-7.2-16-16s7.2-16 16-16h90.4c8.8 0 16 7.2 16 16s-7.2 16-16 16zM907.9 494.5h-90.4c-8.8 0-16-7.2-16-16s7.2-16 16-16h90.4c8.8 0 16 7.2 16 16s-7.2 16-16 16zM907.9 584.4h-90.4c-8.8 0-16-7.2-16-16s7.2-16 16-16h90.4c8.8 0 16 7.2 16 16s-7.2 16-16 16zM907.9 674.3h-90.4c-8.8 0-16-7.2-16-16s7.2-16 16-16h90.4c8.8 0 16 7.2 16 16s-7.2 16-16 16zM907.9 764.1h-90.4c-8.8 0-16-7.2-16-16s7.2-16 16-16h90.4c8.8 0 16 7.2 16 16s-7.2 16-16 16z" p-id="1306" fill="#ffffff"></path><path d="M457.2 610.7c-2.6 0-5.1-0.6-7.5-1.9-5.2-2.8-8.5-8.2-8.5-14.1V430.3c0-5.9 3.3-11.4 8.5-14.1 5.2-2.8 11.6-2.4 16.5 0.9l120.5 82.2c4.4 3 7 7.9 7 13.2 0 5.3-2.6 10.2-7 13.2l-120.5 82.2c-2.7 1.9-5.8 2.8-9 2.8z m16-150.1v103.8l76.1-51.9-76.1-51.9z" p-id="1307" fill="#ffffff"></path></svg>